<mxfile host="app.diagrams.net" modified="2023-10-27T10:13:06.875Z" agent="Mozilla/5.0 (Windows NT 10.0; Win64; x64) AppleWebKit/537.36 (KHTML, like Gecko) Chrome/118.0.0.0 Safari/537.36 Edg/118.0.2088.69" version="22.0.8" etag="NjrYlOTByJhRKTTcnW42" type="github">
  <diagram name="Страница — 1" id="U5zuEX_Tqz7-_gn9q6PC">
    <mxGraphModel>
      <root>
        <mxCell id="0" />
        <mxCell id="1" parent="0" />
      </root>
    </mxGraphModel>
  </diagram>
</mxfile>
